<svg width="466" height="466" viewBox="0 0 466 466" fill="none" xmlns="http://www.w3.org/2000/svg">
<g clip-path="url(#clip0)">
<rect x="4" y="4" width="458" height="458" fill="#4C4CE5"/>
<path d="M204.75 257C201.083 252.333 196.25 248.667 190.25 246C184.417 243.167 178.75 241.75 173.25 241.75C170.417 241.75 167.5 242 164.5 242.5C161.667 243 159.083 244 156.75 245.5C154.417 246.833 152.417 248.667 150.75 251C149.25 253.167 148.5 256 148.5 259.5C148.5 262.5 149.083 265 150.25 267C151.583 269 153.417 270.75 155.75 272.25C158.25 273.75 161.167 275.167 164.5 276.5C167.833 277.667 171.583 278.917 175.75 280.25C181.75 282.25 188 284.5 194.5 287C201 289.333 206.917 292.5 212.25 296.5C217.583 300.5 222 305.5 225.5 311.5C229 317.333 230.75 324.667 230.75 333.5C230.75 343.667 228.833 352.5 225 360C221.333 367.333 216.333 373.417 210 378.25C203.667 383.083 196.417 386.667 188.25 389C180.083 391.333 171.667 392.5 163 392.5C150.333 392.5 138.083 390.333 126.25 386C114.417 381.5 104.583 375.167 96.75 367L124.75 338.5C129.083 343.833 134.75 348.333 141.75 352C148.917 355.5 156 357.25 163 357.25C166.167 357.25 169.25 356.917 172.25 356.25C175.25 355.583 177.833 354.5 180 353C182.333 351.5 184.167 349.5 185.5 347C186.833 344.5 187.5 341.5 187.5 338C187.5 334.667 186.667 331.833 185 329.5C183.333 327.167 180.917 325.083 177.75 323.25C174.75 321.25 170.917 319.5 166.25 318C161.75 316.333 156.583 314.583 150.75 312.75C145.083 310.917 139.5 308.75 134 306.25C128.667 303.75 123.833 300.583 119.5 296.75C115.333 292.75 111.917 288 109.25 282.5C106.75 276.833 105.5 270 105.5 262C105.5 252.167 107.5 243.75 111.5 236.75C115.5 229.75 120.75 224 127.25 219.5C133.75 215 141.083 211.75 149.25 209.75C157.417 207.583 165.667 206.5 174 206.5C184 206.5 194.167 208.333 204.5 212C215 215.667 224.167 221.083 232 228.25L204.75 257ZM378.955 388L365.205 353.25H296.705L283.705 388H237.205L311.455 211H352.955L426.455 388H378.955ZM331.455 258.25L308.955 319H353.455L331.455 258.25Z" fill="white"/>
</g>
<rect x="4" y="4" width="458" height="458" stroke="#4C4CE5" stroke-width="8" stroke-linecap="round" stroke-linejoin="round"/>
<defs>
<clipPath id="clip0">
</clipPath>
</defs>
</svg>
