<svg width="450" height="450" viewBox="0 0 450 450" fill="none" xmlns="http://www.w3.org/2000/svg">
<g clip-path="url(#clip0)">
<rect width="450" height="450" fill="#4C4CE5"/>
<rect width="450" height="450" fill="url(#paint0_linear)"/>
<path d="M196.75 249C193.083 244.333 188.25 240.667 182.25 238C176.417 235.167 170.75 233.75 165.25 233.75C162.417 233.75 159.5 234 156.5 234.5C153.667 235 151.083 236 148.75 237.5C146.417 238.833 144.417 240.667 142.75 243C141.25 245.167 140.5 248 140.5 251.5C140.5 254.5 141.083 257 142.25 259C143.583 261 145.417 262.75 147.75 264.25C150.25 265.75 153.167 267.167 156.5 268.5C159.833 269.667 163.583 270.917 167.75 272.25C173.75 274.25 180 276.5 186.5 279C193 281.333 198.917 284.5 204.25 288.5C209.583 292.5 214 297.5 217.5 303.5C221 309.333 222.75 316.667 222.75 325.5C222.75 335.667 220.833 344.5 217 352C213.333 359.333 208.333 365.417 202 370.25C195.667 375.083 188.417 378.667 180.25 381C172.083 383.333 163.667 384.5 155 384.5C142.333 384.5 130.083 382.333 118.25 378C106.417 373.5 96.5833 367.167 88.75 359L116.75 330.5C121.083 335.833 126.75 340.333 133.75 344C140.917 347.5 148 349.25 155 349.25C158.167 349.25 161.25 348.917 164.25 348.25C167.25 347.583 169.833 346.5 172 345C174.333 343.5 176.167 341.5 177.5 339C178.833 336.5 179.5 333.5 179.5 330C179.5 326.667 178.667 323.833 177 321.5C175.333 319.167 172.917 317.083 169.75 315.25C166.75 313.25 162.917 311.5 158.25 310C153.75 308.333 148.583 306.583 142.75 304.75C137.083 302.917 131.5 300.75 126 298.25C120.667 295.75 115.833 292.583 111.5 288.75C107.333 284.75 103.917 280 101.25 274.5C98.75 268.833 97.5 262 97.5 254C97.5 244.167 99.5 235.75 103.5 228.75C107.5 221.75 112.75 216 119.25 211.5C125.75 207 133.083 203.75 141.25 201.75C149.417 199.583 157.667 198.5 166 198.5C176 198.5 186.167 200.333 196.5 204C207 207.667 216.167 213.083 224 220.25L196.75 249ZM370.955 380L357.205 345.25H288.705L275.705 380H229.205L303.455 203H344.955L418.455 380H370.955ZM323.455 250.25L300.955 311H345.455L323.455 250.25Z" fill="white"/>
</g>
<defs>
<linearGradient id="paint0_linear" x1="225" y1="0" x2="225" y2="450" gradientUnits="userSpaceOnUse">
<stop stop-color="#396CE6"/>
<stop offset="0.655556" stop-color="#396CE6" stop-opacity="0"/>
</linearGradient>
<clipPath id="clip0">
<rect width="450" height="450" fill="white"/>
</clipPath>
</defs>
</svg>
