<svg width="450" height="450" viewBox="0 0 450 450" fill="none" xmlns="http://www.w3.org/2000/svg">
<g clip-path="url(#clip0)">
<rect width="450" height="450" fill="#0D0E10"/>
<path d="M225.75 241C222.083 236.333 217.25 232.667 211.25 230C205.417 227.167 199.75 225.75 194.25 225.75C191.417 225.75 188.5 226 185.5 226.5C182.667 227 180.083 228 177.75 229.5C175.417 230.833 173.417 232.667 171.75 235C170.25 237.167 169.5 240 169.5 243.5C169.5 246.5 170.083 249 171.25 251C172.583 253 174.417 254.75 176.75 256.25C179.25 257.75 182.167 259.167 185.5 260.5C188.833 261.667 192.583 262.917 196.75 264.25C202.75 266.25 209 268.5 215.5 271C222 273.333 227.917 276.5 233.25 280.5C238.583 284.5 243 289.5 246.5 295.5C250 301.333 251.75 308.667 251.75 317.5C251.75 327.667 249.833 336.5 246 344C242.333 351.333 237.333 357.417 231 362.25C224.667 367.083 217.417 370.667 209.25 373C201.083 375.333 192.667 376.5 184 376.5C171.333 376.5 159.083 374.333 147.25 370C135.417 365.5 125.583 359.167 117.75 351L145.75 322.5C150.083 327.833 155.75 332.333 162.75 336C169.917 339.5 177 341.25 184 341.25C187.167 341.25 190.25 340.917 193.25 340.25C196.25 339.583 198.833 338.5 201 337C203.333 335.5 205.167 333.5 206.5 331C207.833 328.5 208.5 325.5 208.5 322C208.5 318.667 207.667 315.833 206 313.5C204.333 311.167 201.917 309.083 198.75 307.25C195.75 305.25 191.917 303.5 187.25 302C182.75 300.333 177.583 298.583 171.75 296.75C166.083 294.917 160.5 292.75 155 290.25C149.667 287.75 144.833 284.583 140.5 280.75C136.333 276.75 132.917 272 130.25 266.5C127.75 260.833 126.5 254 126.5 246C126.5 236.167 128.5 227.75 132.5 220.75C136.5 213.75 141.75 208 148.25 203.5C154.75 199 162.083 195.75 170.25 193.75C178.417 191.583 186.667 190.5 195 190.5C205 190.5 215.167 192.333 225.5 196C236 199.667 245.167 205.083 253 212.25L225.75 241ZM376.705 311.5C376.705 318.5 375.872 325.833 374.205 333.5C372.705 341.167 369.788 348.25 365.455 354.75C361.288 361.083 355.372 366.333 347.705 370.5C340.205 374.667 330.455 376.75 318.455 376.75C303.455 376.75 290.955 372.917 280.955 365.25C270.955 357.417 264.288 347.417 260.955 335.25L298.705 322.5C299.872 327.167 301.955 330.917 304.955 333.75C308.122 336.583 311.955 338 316.455 338C323.455 338 328.038 335.583 330.205 330.75C332.538 325.917 333.705 319.583 333.705 311.75V195H376.705V311.5Z" fill="white"/>
</g>
<defs>
<clipPath id="clip0">
<rect width="450" height="450" fill="white"/>
</clipPath>
</defs>
</svg>
