<svg width="450" height="450" viewBox="0 0 450 450" fill="none" xmlns="http://www.w3.org/2000/svg">
<g clip-path="url(#clip0)">
<rect width="450" height="450" fill="#0D0E10"/>
<path d="M196.75 235C193.083 230.333 188.25 226.667 182.25 224C176.417 221.167 170.75 219.75 165.25 219.75C162.417 219.75 159.5 220 156.5 220.5C153.667 221 151.083 222 148.75 223.5C146.417 224.833 144.417 226.667 142.75 229C141.25 231.167 140.5 234 140.5 237.5C140.5 240.5 141.083 243 142.25 245C143.583 247 145.417 248.75 147.75 250.25C150.25 251.75 153.167 253.167 156.5 254.5C159.833 255.667 163.583 256.917 167.75 258.25C173.75 260.25 180 262.5 186.5 265C193 267.333 198.917 270.5 204.25 274.5C209.583 278.5 214 283.5 217.5 289.5C221 295.333 222.75 302.667 222.75 311.5C222.75 321.667 220.833 330.5 217 338C213.333 345.333 208.333 351.417 202 356.25C195.667 361.083 188.417 364.667 180.25 367C172.083 369.333 163.667 370.5 155 370.5C142.333 370.5 130.083 368.333 118.25 364C106.417 359.5 96.5833 353.167 88.75 345L116.75 316.5C121.083 321.833 126.75 326.333 133.75 330C140.917 333.5 148 335.25 155 335.25C158.167 335.25 161.25 334.917 164.25 334.25C167.25 333.583 169.833 332.5 172 331C174.333 329.5 176.167 327.5 177.5 325C178.833 322.5 179.5 319.5 179.5 316C179.5 312.667 178.667 309.833 177 307.5C175.333 305.167 172.917 303.083 169.75 301.25C166.75 299.25 162.917 297.5 158.25 296C153.75 294.333 148.583 292.583 142.75 290.75C137.083 288.917 131.5 286.75 126 284.25C120.667 281.75 115.833 278.583 111.5 274.75C107.333 270.75 103.917 266 101.25 260.5C98.75 254.833 97.5 248 97.5 240C97.5 230.167 99.5 221.75 103.5 214.75C107.5 207.75 112.75 202 119.25 197.5C125.75 193 133.083 189.75 141.25 187.75C149.417 185.583 157.667 184.5 166 184.5C176 184.5 186.167 186.333 196.5 190C207 193.667 216.167 199.083 224 206.25L196.75 235ZM370.955 366L357.205 331.25H288.705L275.705 366H229.205L303.455 189H344.955L418.455 366H370.955ZM323.455 236.25L300.955 297H345.455L323.455 236.25Z" fill="white"/>
</g>
<defs>
<clipPath id="clip0">
<rect width="450" height="450" fill="white"/>
</clipPath>
</defs>
</svg>
